<svg
  width="450"
  height="450"
  viewBox="0 0 450 450"
  fill="none"
  xmlns="http://www.w3.org/2000/svg"
>
  <g id="laptop">
    <g id="Group">
      <rect id="screen" x="61" y="85" width="327" height="207" fill="#C4C4C4" />
      <path
        id="Vector"
        d="M408.319 304.319V287.66V187.66V87.6596C408.319 78.5074 400.828 71 391.66 71H58.3404C49.1723 71 41.6596 78.4705 41.6596 87.6596V187.66V287.66V304.319L0 354.319C0 368.095 11.1873 379.298 25 379.298H425C438.792 379.298 450 368.09 450 354.319L408.319 304.319ZM258.356 370.995H191.681C189.377 370.995 187.511 369.144 187.511 366.825C187.511 364.505 189.377 362.654 191.681 362.654H258.361C260.644 362.654 262.532 364.505 262.532 366.825C262.468 369.15 260.639 370.995 258.356 370.995ZM156.3 354.335L169.016 339.073H280.957L293.695 354.335H156.3ZM384.864 274.843C384.864 282.883 378.316 289.389 370.334 289.389H79.6605C71.6786 289.389 65.1307 282.825 65.1307 274.843V100.508C65.1307 92.4677 71.6786 85.962 79.6605 85.962H370.34C378.321 85.962 384.869 92.5099 384.869 100.508C384.864 100.508 384.864 274.843 384.864 274.843Z"
        fill="#010002"
      />
    </g>
  </g>

  <defs>
    <style>
      #screen {
        animation: color 2s linear infinite;
      }

      @keyframes color {
        0% {
          fill: #cf9393;
        }
        50% {
          fill: #93b9cf;
        }
        100% {
          fill: #93cf95;
        }
      }
    </style>
  </defs>
</svg>
