<svg
  width="450"
  height="450"
  viewBox="0 0 450 450"
  fill="none"
  xmlns="http://www.w3.org/2000/svg"
>
  <g id="ms" filter="url(#filter0_i)">
    <circle id="Ellipse 1" cx="225" cy="225" r="225" fill="black" />
    <circle id="eye" cx="225" cy="225" r="212" fill="#A50000" />
    <path
      id="tomei"
      d="M229.694 120.917C222.487 81.7825 250.047 35.3528 264.727 17.0297C204.27 15.416 176.81 79.8997 170.638 112.343C167.435 117.185 162.964 175.213 161.129 203.622C160.728 245.581 136.605 272.544 124.594 280.781C94.1649 300.146 46.1859 300.281 26 297.927C36.4099 318.503 66.3718 331.38 80.0515 335.246C124.594 350.879 200.166 318.1 234.699 294.902C262.325 276.343 289.918 278.091 300.261 281.285C343.502 286.127 373.665 339.112 383.34 365C426.982 282.697 326.119 206.312 270.233 178.407C243.007 160.252 231.863 132.516 229.694 120.917Z"
      fill="black"
      stroke="black"
    />
    <circle id="Ellipse 3" cx="225" cy="225" r="32" fill="#A00000" />
  </g>
  <defs>
    <filter
      id="filter0_i"
      x="0"
      y="0"
      width="450"
      height="454"
      filterUnits="userSpaceOnUse"
      color-interpolation-filters="sRGB"
    >
      <feFlood flood-opacity="0" result="BackgroundImageFix" />
      <feBlend
        mode="normal"
        in="SourceGraphic"
        in2="BackgroundImageFix"
        result="shape"
      />
      <feColorMatrix
        in="SourceAlpha"
        type="matrix"
        values="0 0 0 0 0 0 0 0 0 0 0 0 0 0 0 0 0 0 127 0"
        result="hardAlpha"
      />
      <feOffset dy="4" />
      <feGaussianBlur stdDeviation="2" />
      <feComposite in2="hardAlpha" operator="arithmetic" k2="-1" k3="1" />
      <feColorMatrix
        type="matrix"
        values="0 0 0 0 0 0 0 0 0 0 0 0 0 0 0 0 0 0 0.25 0"
      />
      <feBlend mode="normal" in2="shape" result="effect1_innerShadow" />
    </filter>
    <style>
            #tomei {
              animation: spin 3.5s ease-out 1;
              transform-origin: center;
            }

            #eye {
        animation: light 2.9s ease-out 1;
      }

            @keyframes spin {
              0% {
                transform: rotate(360);
              }
              50%,
              100% {
                transform: rotate(360deg);
              }
            }

            @keyframes light {
        90% {
          fill: #ff0000;
        }
        100% {
          fill: #a50000;
        }
    </style>
  </defs>
</svg>
